<svg width="226" height="36" viewBox="0 0 226 36" fill="none" xmlns="http://www.w3.org/2000/svg">
  <path
    d="M0 6C0 2.68629 2.68629 0 6 0H30C33.3137 0 36 2.68629 36 6V30C36 33.3137 33.3137 36 30 36H6C2.68629 36 0 33.3137 0 30V6Z"
    fill="white" />
  <path
    d="M18 18C18 24.6274 12.6274 30 6 30C6 23.3726 11.3726 18 18 18ZM18 18C24.6274 18 30 23.3726 30 30C23.3726 30 18 24.6274 18 18ZM6 6C12.6274 6 18 11.3726 18 18C11.3726 18 6 12.6274 6 6ZM30 6C30 12.6274 24.6274 18 18 18C18 11.3726 23.3726 6 30 6Z"
    fill="black" />
  <path
    d="M43.416 31.896V14.784H45.792V15.96C46.816 15.048 48.064 14.592 49.536 14.592C50.688 14.592 51.728 14.872 52.656 15.432C53.6 15.992 54.344 16.744 54.888 17.688C55.432 18.632 55.704 19.696 55.704 20.88C55.704 22.064 55.424 23.136 54.864 24.096C54.32 25.04 53.576 25.792 52.632 26.352C51.704 26.912 50.656 27.192 49.488 27.192C48.816 27.192 48.168 27.088 47.544 26.88C46.92 26.656 46.344 26.344 45.816 25.944V31.896H43.416ZM49.224 25.104C50.008 25.104 50.704 24.92 51.312 24.552C51.936 24.184 52.432 23.688 52.8 23.064C53.168 22.424 53.352 21.704 53.352 20.904C53.352 20.104 53.168 19.384 52.8 18.744C52.432 18.104 51.936 17.6 51.312 17.232C50.704 16.864 50.008 16.68 49.224 16.68C48.536 16.68 47.896 16.808 47.304 17.064C46.712 17.32 46.216 17.68 45.816 18.144V23.664C46.216 24.112 46.712 24.464 47.304 24.72C47.912 24.976 48.552 25.104 49.224 25.104Z"
    fill="white" />
  <path
    d="M61.9753 27.216C61.0953 27.216 60.3193 27.064 59.6473 26.76C58.9753 26.44 58.4473 26 58.0633 25.44C57.6793 24.88 57.4873 24.232 57.4873 23.496C57.4873 22.344 57.9273 21.44 58.8073 20.784C59.6873 20.112 60.8953 19.776 62.4313 19.776C63.6313 19.776 64.7433 20.008 65.7673 20.472V19.176C65.7673 18.296 65.5113 17.64 64.9993 17.208C64.5033 16.776 63.7673 16.56 62.7913 16.56C62.2313 16.56 61.6473 16.648 61.0393 16.824C60.4313 16.984 59.7513 17.24 58.9993 17.592L58.1113 15.792C59.0393 15.36 59.9033 15.048 60.7033 14.856C61.5033 14.648 62.3113 14.544 63.1273 14.544C64.7113 14.544 65.9353 14.92 66.7993 15.672C67.6793 16.424 68.1193 17.496 68.1193 18.888V27H65.7673V25.944C65.2233 26.376 64.6393 26.696 64.0153 26.904C63.3913 27.112 62.7113 27.216 61.9753 27.216ZM59.7913 23.448C59.7913 24.04 60.0393 24.52 60.5353 24.888C61.0473 25.256 61.7113 25.44 62.5273 25.44C63.1673 25.44 63.7513 25.344 64.2793 25.152C64.8233 24.96 65.3193 24.664 65.7673 24.264V22.2C65.3033 21.928 64.8153 21.736 64.3033 21.624C63.8073 21.496 63.2473 21.432 62.6233 21.432C61.7433 21.432 61.0473 21.616 60.5353 21.984C60.0393 22.336 59.7913 22.824 59.7913 23.448Z"
    fill="white" />
  <path
    d="M76.9327 32.136C76.0367 32.136 75.1647 32.032 74.3167 31.824C73.4687 31.616 72.7007 31.32 72.0127 30.936L72.9248 29.064C73.6448 29.432 74.3168 29.696 74.9408 29.856C75.5807 30.032 76.2207 30.12 76.8607 30.12C77.9327 30.12 78.7408 29.872 79.2848 29.376C79.8448 28.88 80.1247 28.152 80.1247 27.192V25.8C79.0527 26.648 77.8288 27.072 76.4528 27.072C75.3328 27.072 74.3008 26.8 73.3568 26.256C72.4288 25.696 71.6928 24.944 71.1488 24C70.6048 23.04 70.3327 21.984 70.3327 20.832C70.3327 19.664 70.6048 18.608 71.1488 17.664C71.7088 16.704 72.4528 15.952 73.3808 15.408C74.3248 14.848 75.3808 14.568 76.5488 14.568C77.2048 14.568 77.8367 14.68 78.4447 14.904C79.0687 15.112 79.6368 15.416 80.1488 15.816V14.784H82.5247V27.192C82.5247 28.776 82.0368 29.992 81.0608 30.84C80.1008 31.704 78.7247 32.136 76.9327 32.136ZM76.7647 25.008C77.4687 25.008 78.1088 24.888 78.6848 24.648C79.2608 24.392 79.7407 24.032 80.1247 23.568V18.096C79.7407 17.648 79.2528 17.296 78.6608 17.04C78.0848 16.784 77.4527 16.656 76.7647 16.656C75.9967 16.656 75.3008 16.84 74.6768 17.208C74.0688 17.576 73.5808 18.08 73.2128 18.72C72.8608 19.344 72.6848 20.048 72.6848 20.832C72.6848 21.616 72.8608 22.328 73.2128 22.968C73.5808 23.592 74.0688 24.088 74.6768 24.456C75.3008 24.824 75.9967 25.008 76.7647 25.008Z"
    fill="white" />
  <path
    d="M89.2097 27.216C88.3297 27.216 87.5537 27.064 86.8817 26.76C86.2097 26.44 85.6817 26 85.2977 25.44C84.9137 24.88 84.7217 24.232 84.7217 23.496C84.7217 22.344 85.1617 21.44 86.0417 20.784C86.9217 20.112 88.1297 19.776 89.6657 19.776C90.8657 19.776 91.9777 20.008 93.0017 20.472V19.176C93.0017 18.296 92.7457 17.64 92.2337 17.208C91.7377 16.776 91.0017 16.56 90.0257 16.56C89.4657 16.56 88.8817 16.648 88.2737 16.824C87.6657 16.984 86.9857 17.24 86.2337 17.592L85.3457 15.792C86.2737 15.36 87.1377 15.048 87.9377 14.856C88.7377 14.648 89.5457 14.544 90.3617 14.544C91.9457 14.544 93.1697 14.92 94.0337 15.672C94.9137 16.424 95.3537 17.496 95.3537 18.888V27H93.0017V25.944C92.4577 26.376 91.8737 26.696 91.2497 26.904C90.6257 27.112 89.9457 27.216 89.2097 27.216ZM87.0257 23.448C87.0257 24.04 87.2737 24.52 87.7697 24.888C88.2817 25.256 88.9457 25.44 89.7617 25.44C90.4017 25.44 90.9857 25.344 91.5137 25.152C92.0577 24.96 92.5537 24.664 93.0017 24.264V22.2C92.5377 21.928 92.0497 21.736 91.5377 21.624C91.0417 21.496 90.4817 21.432 89.8577 21.432C88.9777 21.432 88.2817 21.616 87.7697 21.984C87.2737 22.336 87.0257 22.824 87.0257 23.448Z"
    fill="white" />
  <path
    d="M98.1191 27V14.784H100.519V15.96C101.431 15.016 102.575 14.544 103.951 14.544C104.783 14.544 105.519 14.728 106.159 15.096C106.815 15.464 107.335 15.96 107.719 16.584C108.231 15.912 108.831 15.408 109.519 15.072C110.207 14.72 110.983 14.544 111.847 14.544C112.759 14.544 113.551 14.744 114.223 15.144C114.911 15.544 115.447 16.104 115.831 16.824C116.231 17.544 116.431 18.376 116.431 19.32V27H114.031V19.728C114.031 18.768 113.775 18.016 113.263 17.472C112.767 16.912 112.087 16.632 111.223 16.632C110.631 16.632 110.095 16.768 109.615 17.04C109.135 17.312 108.719 17.728 108.367 18.288C108.399 18.448 108.423 18.616 108.439 18.792C108.455 18.968 108.463 19.144 108.463 19.32V27H106.087V19.728C106.087 18.768 105.831 18.016 105.319 17.472C104.823 16.912 104.143 16.632 103.279 16.632C102.703 16.632 102.183 16.76 101.719 17.016C101.255 17.256 100.855 17.624 100.519 18.12V27H98.1191Z"
    fill="white" />
  <path
    d="M125.045 27.216C123.845 27.216 122.757 26.936 121.781 26.376C120.821 25.816 120.053 25.056 119.477 24.096C118.917 23.136 118.637 22.064 118.637 20.88C118.637 19.712 118.909 18.656 119.453 17.712C119.997 16.752 120.733 15.992 121.661 15.432C122.589 14.856 123.621 14.568 124.757 14.568C125.893 14.568 126.901 14.856 127.781 15.432C128.661 15.992 129.357 16.76 129.869 17.736C130.397 18.696 130.661 19.784 130.661 21V21.672H121.037C121.165 22.344 121.413 22.944 121.781 23.472C122.165 24 122.645 24.416 123.221 24.72C123.813 25.024 124.453 25.176 125.141 25.176C125.733 25.176 126.301 25.088 126.845 24.912C127.405 24.72 127.869 24.448 128.237 24.096L129.773 25.608C129.053 26.152 128.309 26.56 127.541 26.832C126.789 27.088 125.957 27.216 125.045 27.216ZM121.061 19.872H128.285C128.189 19.232 127.965 18.672 127.613 18.192C127.277 17.696 126.853 17.312 126.341 17.04C125.845 16.752 125.301 16.608 124.709 16.608C124.101 16.608 123.541 16.744 123.029 17.016C122.517 17.288 122.085 17.672 121.733 18.168C121.397 18.648 121.173 19.216 121.061 19.872Z"
    fill="white" />
  <path
    d="M132.947 27V14.784H135.347V16.032C136.291 15.04 137.515 14.544 139.019 14.544C139.963 14.544 140.787 14.744 141.491 15.144C142.211 15.544 142.771 16.104 143.171 16.824C143.587 17.544 143.795 18.376 143.795 19.32V27H141.395V19.728C141.395 18.768 141.123 18.016 140.579 17.472C140.051 16.912 139.307 16.632 138.347 16.632C137.707 16.632 137.131 16.768 136.619 17.04C136.107 17.312 135.683 17.704 135.347 18.216V27H132.947Z"
    fill="white" />
  <path
    d="M151.445 27.216C150.261 27.216 149.357 26.944 148.733 26.4C148.109 25.84 147.797 25.032 147.797 23.976V16.8H145.205V14.784H147.797V11.664L150.173 11.088V14.784H153.773V16.8H150.173V23.424C150.173 24.048 150.309 24.496 150.581 24.768C150.869 25.024 151.333 25.152 151.973 25.152C152.309 25.152 152.605 25.128 152.861 25.08C153.133 25.032 153.421 24.96 153.725 24.864V26.88C153.405 26.992 153.029 27.072 152.597 27.12C152.181 27.184 151.797 27.216 151.445 27.216Z"
    fill="white" />
  <path
    d="M161.161 27.24C159.977 27.24 158.897 26.96 157.921 26.4C156.961 25.84 156.201 25.08 155.641 24.12C155.081 23.16 154.801 22.088 154.801 20.904C154.801 19.72 155.081 18.648 155.641 17.688C156.201 16.728 156.961 15.968 157.921 15.408C158.897 14.832 159.977 14.544 161.161 14.544C162.361 14.544 163.442 14.832 164.402 15.408C165.362 15.968 166.122 16.728 166.682 17.688C167.242 18.648 167.521 19.72 167.521 20.904C167.521 22.088 167.242 23.16 166.682 24.12C166.122 25.08 165.362 25.84 164.402 26.4C163.442 26.96 162.361 27.24 161.161 27.24ZM161.161 25.128C161.913 25.128 162.594 24.944 163.202 24.576C163.81 24.192 164.289 23.68 164.641 23.04C164.993 22.4 165.169 21.68 165.169 20.88C165.169 20.096 164.986 19.392 164.618 18.768C164.266 18.128 163.786 17.616 163.178 17.232C162.586 16.848 161.913 16.656 161.161 16.656C160.409 16.656 159.73 16.848 159.122 17.232C158.53 17.616 158.05 18.128 157.682 18.768C157.33 19.392 157.154 20.096 157.154 20.88C157.154 21.68 157.33 22.4 157.682 23.04C158.034 23.68 158.514 24.192 159.122 24.576C159.73 24.944 160.409 25.128 161.161 25.128Z"
    fill="white" />
  <path
    d="M173.991 27.24C172.935 27.24 171.943 27.088 171.015 26.784C170.103 26.464 169.311 26.016 168.639 25.44L169.959 23.856C170.583 24.352 171.223 24.736 171.879 25.008C172.551 25.264 173.231 25.392 173.919 25.392C174.783 25.392 175.487 25.224 176.031 24.888C176.575 24.552 176.847 24.112 176.847 23.568C176.847 23.12 176.687 22.768 176.367 22.512C176.047 22.256 175.551 22.08 174.879 21.984L172.671 21.672C171.455 21.496 170.543 21.12 169.935 20.544C169.327 19.968 169.023 19.2 169.023 18.24C169.023 17.504 169.223 16.864 169.623 16.32C170.023 15.76 170.583 15.328 171.303 15.024C172.023 14.704 172.863 14.544 173.823 14.544C174.703 14.544 175.551 14.672 176.367 14.928C177.183 15.184 177.967 15.584 178.719 16.128L177.495 17.712C176.823 17.264 176.167 16.936 175.527 16.728C174.903 16.52 174.271 16.416 173.631 16.416C172.895 16.416 172.303 16.576 171.855 16.896C171.407 17.2 171.183 17.6 171.183 18.096C171.183 18.544 171.335 18.896 171.639 19.152C171.959 19.392 172.479 19.56 173.199 19.656L175.407 19.968C176.623 20.144 177.543 20.52 178.167 21.096C178.791 21.656 179.103 22.416 179.103 23.376C179.103 24.112 178.879 24.776 178.431 25.368C177.983 25.944 177.375 26.4 176.607 26.736C175.839 27.072 174.967 27.24 173.991 27.24Z"
    fill="white" />
  <path
    d="M182.367 27.168C181.951 27.168 181.591 27.024 181.287 26.736C180.999 26.432 180.855 26.072 180.855 25.656C180.855 25.24 180.999 24.888 181.287 24.6C181.591 24.296 181.951 24.144 182.367 24.144C182.783 24.144 183.135 24.296 183.423 24.6C183.727 24.888 183.879 25.24 183.879 25.656C183.879 26.072 183.727 26.432 183.423 26.736C183.135 27.024 182.783 27.168 182.367 27.168Z"
    fill="white" />
  <path
    d="M191.79 27.192C190.654 27.192 189.614 26.912 188.67 26.352C187.726 25.792 186.982 25.04 186.438 24.096C185.894 23.136 185.622 22.064 185.622 20.88C185.622 19.696 185.894 18.632 186.438 17.688C186.998 16.744 187.75 15.992 188.694 15.432C189.638 14.872 190.686 14.592 191.838 14.592C192.51 14.592 193.158 14.696 193.782 14.904C194.406 15.112 194.982 15.416 195.51 15.816V10.2L197.91 9.744V27H195.534V25.824C194.494 26.736 193.246 27.192 191.79 27.192ZM192.102 25.104C192.806 25.104 193.446 24.976 194.022 24.72C194.614 24.464 195.11 24.096 195.51 23.616V18.12C195.11 17.672 194.614 17.32 194.022 17.064C193.446 16.792 192.806 16.656 192.102 16.656C191.334 16.656 190.638 16.84 190.014 17.208C189.39 17.576 188.894 18.08 188.526 18.72C188.158 19.344 187.974 20.056 187.974 20.856C187.974 21.656 188.158 22.376 188.526 23.016C188.894 23.656 189.39 24.168 190.014 24.552C190.638 24.92 191.334 25.104 192.102 25.104Z"
    fill="white" />
  <path
    d="M206.608 27.216C205.408 27.216 204.32 26.936 203.344 26.376C202.384 25.816 201.616 25.056 201.04 24.096C200.48 23.136 200.2 22.064 200.2 20.88C200.2 19.712 200.472 18.656 201.016 17.712C201.56 16.752 202.296 15.992 203.224 15.432C204.152 14.856 205.184 14.568 206.32 14.568C207.456 14.568 208.464 14.856 209.344 15.432C210.224 15.992 210.92 16.76 211.432 17.736C211.96 18.696 212.224 19.784 212.224 21V21.672H202.6C202.728 22.344 202.976 22.944 203.344 23.472C203.728 24 204.208 24.416 204.784 24.72C205.376 25.024 206.016 25.176 206.704 25.176C207.296 25.176 207.864 25.088 208.408 24.912C208.968 24.72 209.432 24.448 209.8 24.096L211.336 25.608C210.616 26.152 209.872 26.56 209.104 26.832C208.352 27.088 207.52 27.216 206.608 27.216ZM202.624 19.872H209.848C209.752 19.232 209.528 18.672 209.176 18.192C208.84 17.696 208.416 17.312 207.904 17.04C207.408 16.752 206.864 16.608 206.272 16.608C205.664 16.608 205.104 16.744 204.592 17.016C204.08 17.288 203.648 17.672 203.296 18.168C202.96 18.648 202.736 19.216 202.624 19.872Z"
    fill="white" />
  <path
    d="M218.094 27L212.814 14.784H215.454L219.27 23.928L223.086 14.784H225.63L220.398 27H218.094Z"
    fill="white" />
</svg>