<svg
  width="87"
  height="88"
  viewBox="0 0 87 88"
  fill="none"
  xmlns="http://www.w3.org/2000/svg"
>
  <g clip-path="url(#clip0_558_935)">
    <path
      d="M74.4054 56.9872C74.9256 51.0898 73.3323 45.3793 77.6892 41.1979L80.3877 38.6083C84.0726 35.0632 86.1417 30.2602 86.1417 25.2529C86.1417 20.2453 84.0726 15.4426 80.3877 11.8975L74.34 6.09375L69.9834 10.2751C65.139 10.3999 60.3273 12.241 56.6211 15.7981L55.938 16.4221C51.5892 20.5963 45.8424 23.1604 39.7146 23.6614C31.5861 24.3166 23.9784 27.7177 18.1911 33.2725C13.6068 37.6651 10.4295 43.2265 9.03504 49.2988C7.6407 55.3705 8.08771 61.6987 10.3233 67.534L8.1123 69.6559L16.4031 77.6131C19.5552 80.6407 23.2983 83.0425 27.4182 84.6811C31.5378 86.3197 35.9538 87.1633 40.4136 87.1633C44.8731 87.1633 49.2891 86.3197 53.4087 84.6811C57.5286 83.0425 61.2717 80.6407 64.4241 77.6131C70.1784 72.0898 73.7223 64.7881 74.4054 56.9872Z"
      fill="#2A2A2A"
    />
    <path
      d="M60.4226 4.76357C63.8993 4.76615 67.2971 5.79968 70.187 7.73354C73.0769 9.66764 75.3296 12.4153 76.6601 15.6295C77.9906 18.8437 78.3396 22.3807 77.6628 25.7932C76.9857 29.206 75.3134 32.3413 72.857 34.8031L72.242 35.4187C68.3516 39.3085 65.9654 44.4523 65.5067 49.9363C64.8878 57.2062 61.7229 64.0237 56.5695 69.1849C53.754 72.0127 50.4081 74.2555 46.7238 75.7846C43.0395 77.3137 39.0896 78.0997 35.1011 78.0964C27.3296 78.0964 19.5582 75.1153 13.6323 69.1849C10.8144 66.3661 8.57896 63.0196 7.05379 59.3359C5.52862 55.6522 4.74364 51.7039 4.74364 47.7166C4.74364 43.7293 5.52862 39.7813 7.05379 36.0976C8.57896 32.4139 10.8144 29.0668 13.6323 26.248C18.7866 21.0865 25.6008 17.9179 32.8665 17.3044C38.3391 16.8508 43.4873 14.4526 47.3733 10.564L47.9886 9.94844C49.6134 8.30144 51.5495 6.99479 53.6846 6.10463C55.8194 5.21444 58.1102 4.75856 60.4226 4.76357ZM60.4226 2.12961e-05C54.4646 2.12961e-05 48.8307 2.33321 44.6208 6.54587L44.0381 7.16144C40.9619 10.24 36.8493 12.1519 32.478 12.5407C24.0915 13.2538 16.2228 16.9156 10.2971 22.8457C7.02715 26.104 4.43374 29.9773 2.66647 34.243C0.899201 38.509 -0.00700918 43.0828 4.08204e-05 47.7004C4.08204e-05 57.0979 3.65905 65.9122 10.2971 72.5551C16.9352 79.1986 25.743 82.8601 35.1333 82.8601C44.5236 82.8601 53.3316 79.1986 59.9697 72.5551C65.8953 66.625 69.5865 58.7185 70.299 50.3575C70.6611 45.9847 72.5663 41.8837 75.6743 38.7889L76.2896 38.1733C78.3683 36.0997 80.0166 33.6349 81.1389 30.9205C82.2618 28.2064 82.8366 25.297 82.8306 22.3594C82.8306 16.3969 80.4989 10.7584 76.2896 6.54587C72.0761 2.3462 66.3692 -0.0081687 60.4226 2.12961e-05Z"
      fill="#6B6B6B"
    />
    <path
      d="M72.2622 35.4274L72.8769 34.8118C74.5104 33.178 75.8058 31.2376 76.6896 29.1028C77.5734 26.9677 78.0282 24.679 78.0282 22.3681C78.0282 20.0572 77.5734 17.7688 76.6896 15.6337C75.8058 13.4986 74.5104 11.5585 72.8769 9.92473C71.2446 8.29033 69.3057 6.99382 67.1724 6.10933C65.0388 5.22478 62.7525 4.76953 60.4428 4.76953C58.1334 4.76953 55.8468 5.22478 53.7132 6.10933C51.5799 6.99382 49.6413 8.29033 48.0084 9.92473L47.3937 10.5403C43.5063 14.4331 38.3667 16.8214 32.8869 17.2807C25.6209 17.8942 18.8067 21.0625 13.6524 26.2246C10.8345 29.0434 8.59902 32.3902 7.07385 36.0736C5.54868 39.7573 4.76367 43.7056 4.76367 47.6929C4.76367 51.6802 5.54868 55.6285 7.07385 59.3119C8.59902 62.9956 10.8345 66.3427 13.6524 69.1615C16.4691 71.9815 19.8135 74.2186 23.4945 75.7447C27.1752 77.2711 31.1205 78.0568 35.1048 78.0568C39.0891 78.0568 43.0344 77.2711 46.7154 75.7447C50.3961 74.2186 53.7405 71.9815 56.5572 69.1615C61.7151 64.0033 64.8813 57.184 65.4945 49.9129C65.9799 44.4688 68.3763 39.316 72.2622 35.4274Z"
      fill="#CFCFCF"
    />
    <path
      d="M72.2622 35.4274L72.8769 34.8118C74.5104 33.178 75.8058 31.2376 76.6896 29.1028C77.5734 26.9677 78.0282 24.679 78.0282 22.3681C78.0282 20.0572 77.5734 17.7688 76.6896 15.6337C75.8058 13.4986 74.5104 11.5585 72.8769 9.92473C71.2446 8.29033 69.3057 6.99382 67.1724 6.10933C65.0388 5.22478 62.7525 4.76953 60.4428 4.76953C58.1334 4.76953 55.8468 5.22478 53.7132 6.10933C51.5799 6.99382 49.6413 8.29033 48.0084 9.92473L47.3937 10.5403C43.5063 14.4331 38.3667 16.8214 32.8869 17.2807C25.6209 17.8942 18.8067 21.0625 13.6524 26.2246C10.8345 29.0434 8.59902 32.3902 7.07385 36.0736C5.54868 39.7573 4.76367 43.7056 4.76367 47.6929C4.76367 51.6802 5.54868 55.6285 7.07385 59.3119C8.59902 62.9956 10.8345 66.3427 13.6524 69.1615C16.4691 71.9815 19.8135 74.2186 23.4945 75.7447C27.1752 77.2711 31.1205 78.0568 35.1048 78.0568C39.0891 78.0568 43.0344 77.2711 46.7154 75.7447C50.3961 74.2186 53.7405 71.9815 56.5572 69.1615C61.7151 64.0033 64.8813 57.184 65.4945 49.9129C65.9799 44.4688 68.3763 39.316 72.2622 35.4274Z"
      fill="#E9E9E9"
    />
    <path
      d="M36.5535 60.5776C40.2981 60.5776 43.8891 59.089 46.5366 56.4394C49.1844 53.7898 50.6718 50.1961 50.6718 46.4491C50.6718 42.7018 49.1844 39.1081 46.5366 36.4585C43.8891 33.8089 40.2981 32.3203 36.5535 32.3203C32.8095 32.3203 29.2182 33.8089 26.5707 36.4585C23.9229 39.1081 22.4355 42.7018 22.4355 46.4491C22.4355 50.1961 23.9229 53.7898 26.5707 56.4394C29.2182 59.089 32.8095 60.5776 36.5535 60.5776Z"
      fill="#3C3C3C"
    />
  </g>
  <defs>
    <clipPath id="clip0_558_935">
      <rect width="87" height="88" fill="white" />
    </clipPath>
  </defs>
</svg>