<svg width="156" height="77" viewBox="0 0 156 77" fill="none" xmlns="http://www.w3.org/2000/svg">
  <style>
    @media (prefers-color-scheme: dark) {
    path {
    fill: white;
    }
    }
  </style>
  <path
    d="M57.1953 44.4499C62.0953 49.3499 66.5953 53.8499 71.0953 58.3499C60.8953 70.8499 48.1953 78.5499 31.2953 75.3499C15.5953 72.3499 5.29532 62.6499 1.19532 47.0499C-3.10468 30.5499 4.49531 13.4499 19.1953 5.0499C33.8953 -3.3501 52.2953 -1.1501 64.3953 10.7499C77.8953 23.9499 91.0953 37.4499 104.495 50.7499C111.395 57.5499 121.595 58.3499 128.995 52.8499C137.295 46.6499 138.795 34.6499 132.395 26.5499C125.895 18.4499 113.895 17.1499 106.095 23.9499C103.395 26.2499 101.195 29.1499 98.8953 31.7499C93.8953 26.7499 89.3953 22.2499 84.8953 17.7499C94.7953 5.5499 107.295 -2.7501 125.895 0.949901C141.395 3.9499 152.895 16.6499 155.495 32.5499C157.995 48.1499 149.795 64.2499 135.495 71.7499C120.895 79.3499 103.195 76.7499 91.2953 65.0499C77.9953 51.8499 64.7953 38.5499 51.4953 25.3499C45.7953 19.6499 37.7953 17.9499 30.7953 21.1499C23.6953 24.3499 19.7953 29.9499 19.6953 37.8499C19.5953 45.6499 23.1953 51.5499 30.2953 54.8499C37.4953 58.1499 44.2953 57.1499 50.2953 51.9499C52.8953 49.5499 54.9953 46.8499 57.1953 44.4499Z"
    fill="black" />
</svg>